# xmcd
#
# Track frame offsets:
#	150
#	3740
#	22931
#	29832
#	59067
#	79476
#	101382
#	129246
#	147163
#	169352
#	194203
#	216393
#	236248
#	264070
#	284111
#	288242
#
# Disc length: 4094 seconds
#
# Revision: 1
# Processed by: cddbd v1.5.2PL0 Copyright (c) Steve Scherf et al.
# Submitted via: audiograbber 1.83.01
#
DISCID=000ffc10
DTITLE=Paul Simon - The Concert In Hyde Park [CD 2)
DYEAR=2017
DGENRE=Pop
TTITLE0=Introduction [live]
TTITLE1=Homeless [with Ladysmith Black Mambazo] [live]
TTITLE2=Graceland Band Introduction [live]
TTITLE3=Diamonds On The Soles Of Her Shoes [with Ladysmith Black Mambazo] [live
TTITLE3=]
TTITLE4=I Know What I Know [live]
TTITLE5=The Boy In The Bubble [live]
TTITLE6=Crazy Love, Vol. II [live]
TTITLE7=Gumboots [live]
TTITLE8=Under African Skies [with Thandiswa Mazwai] [live]
TTITLE9=Graceland [live]
TTITLE10=You Can Call Me Al [live]
TTITLE11=The Sound Of Silence [live]
TTITLE12=The Boxer [with Jerry Douglas] [live]
TTITLE13=Late In The Evening [live]
TTITLE14=Band Introduction and Thank You [live]
TTITLE15=Still Crazy After All These Years [live]
EXTD=
EXTT0=
EXTT1=
EXTT2=
EXTT3=
EXTT4=
EXTT5=
EXTT6=
EXTT7=
EXTT8=
EXTT9=
EXTT10=
EXTT11=
EXTT12=
EXTT13=
EXTT14=
EXTT15=
PLAYORDER=
